<svg xmlns="http://www.w3.org/2000/svg" viewBox="0 0 30 25.94">
    <defs>
        <style>.cls-1{fill:#23c3e8;}</style>
    </defs>
    <g>
        <path class="cls-1"
              d="M.64,10.89l12.51,8.42.35.24a3.15,3.15,0,0,0,2.65.28,2.47,2.47,0,0,0,.59-.29l12.63-8.67a1.18,1.18,0,0,0-.07-2.11L16.59.43a3.1,3.1,0,0,0-3.13,0L.69,8.75A1.19,1.19,0,0,0,.64,10.89ZM6.47,8.4l2.4.09c.54,0,.57.46,0,.79l-.66.42,1.13.75,5.4-.74.07,0,1.35-3.8-.93-.62-.66.42c-.52.33-1.2.3-1.22,0l-.1-1.55c0-.35.63-.76,1.17-.74l2.38.1c.54,0,.57.46.05.79l-.61.39.95.63s0,0,0,0,.2.14.15.27L16.16,9.14l5.53-.76a.44.44,0,0,1,.41.1l.07,0,.95.63.61-.39c.52-.33,1.19-.3,1.21,0l.1,1.55c0,.35-.62.76-1.16.74L21.51,11c-.54,0-.57-.46-.05-.79l.66-.42-.93-.62-5.87.8-.07,0L14,13.51l1.13.74.66-.42c.52-.33,1.2-.31,1.22,0l.1,1.56c0,.35-.63.77-1.17.75l-2.4-.09c-.54,0-.57-.46,0-.8l.62-.4-1.25-.83h0a.19.19,0,0,1-.08-.24l1.17-3.28-5.07.69a.56.56,0,0,1-.37-.05h0l-1.25-.83-.63.4c-.52.33-1.21.31-1.23,0L5.29,9.15C5.27,8.79,5.93,8.38,6.47,8.4ZM30,11.57h0a1.35,1.35,0,0,1-.59.8L16.75,21a2.47,2.47,0,0,1-.59.29A3.15,3.15,0,0,1,13.5,21l-.35-.24L.64,12.39A1.38,1.38,0,0,1,0,11.57H0v4H0a1.21,1.21,0,0,0,.61,1.26l12.51,8.42.35.24a3.15,3.15,0,0,0,2.65.28,2.47,2.47,0,0,0,.59-.29l12.63-8.67A1.19,1.19,0,0,0,30,15.57h0Z"/>
    </g>
</svg>