<svg xmlns="http://www.w3.org/2000/svg" viewBox="0 0 30 25.94">
    <defs>
        <style>.cls-1{fill:#23c3e8;}</style>
    </defs>
    <g>
        <path class="cls-1"
              d="M30,11.57h0a1.35,1.35,0,0,1-.59.8L16.75,21a2.47,2.47,0,0,1-.59.29A3.15,3.15,0,0,1,13.5,21l-.35-.24L.64,12.39A1.38,1.38,0,0,1,0,11.57H0v4H0a1.21,1.21,0,0,0,.61,1.26l12.51,8.42.35.24a3.15,3.15,0,0,0,2.65.28,2.47,2.47,0,0,0,.59-.29l12.63-8.67A1.19,1.19,0,0,0,30,15.57h0ZM.64,10.89l12.51,8.42.35.24a3.15,3.15,0,0,0,2.65.28,2.47,2.47,0,0,0,.59-.29l12.63-8.67a1.18,1.18,0,0,0-.07-2.11L16.59.43a3.1,3.1,0,0,0-3.13,0L.69,8.75A1.19,1.19,0,0,0,.64,10.89ZM6.76,8.53l1.82-.61c.4-.13.83,0,.79.32l-.06.35,4.95,0L11.13,6.45l-.38.21c-.31.18-.8.08-.86-.16L9.6,5.45c-.06-.23.32-.43.69-.36l1.62.31c.37.07.47.36.17.52l-.37.2,2.93,2,.06-2.75h-.46c-.38,0-.6-.26-.4-.45l.84-.81a.66.66,0,0,1,.8,0l.8.85c.19.2,0,.44-.4.43h-.45V8.3l3.14-2.08L18.24,6c-.27-.17-.18-.44.17-.49l1.48-.22c.33,0,.67.16.61.37l-.26,1c-.06.23-.49.3-.78.13l-.34-.22-3,2.08,4.69,0,0-.33c0-.26.34-.42.69-.29l1.54.59c.35.13.43.47.13.61l-1.35.61c-.32.14-.77,0-.82-.32l-.05-.34-4.66,0,3.68,2.52.33-.28a.66.66,0,0,1,.93.17L21.83,13c.16.33-.17.64-.6.56l-1.91-.36c-.43-.08-.61-.49-.32-.73l.35-.29-3.89-2.7v3.93H16c.46,0,.76.37.54.69l-1,1.48a.72.72,0,0,1-1.1,0l-1-1.44c-.22-.31.09-.71.56-.72h.58l.08-3.77L10.85,12.2l.38.29c.31.24.11.67-.36.78l-2.16.46c-.5.11-.89-.21-.69-.57l.82-1.5a.79.79,0,0,1,1.06-.2l.37.29,3.87-2.57-4.92,0-.06.37c-.05.3-.58.5-.95.34L6.6,9.19C6.24,9,6.34,8.67,6.76,8.53Z"/>
    </g>
</svg>