<svg xmlns="http://www.w3.org/2000/svg" viewBox="0 0 28.69 25.32">
    <defs>
        <style>.cls-1{fill:#23c3e8;}</style>
    </defs>
    <g>
        <path class="cls-1"
              d="M9.12,24.53H7.44v-1H4.25v1H2.48a.27.27,0,0,0-.27.27v.27a.27.27,0,0,0,.27.27H9.12a.27.27,0,0,0,.27-.27v-.27A.27.27,0,0,0,9.12,24.53Zm.67-7.91H1.89a.78.78,0,0,0-.78.78V21a.78.78,0,0,0,.78.78h7.9a.78.78,0,0,0,.78-.78V17.4A.78.78,0,0,0,9.79,16.62Zm16.33,7.91H24.44v-1H21.25v1H19.48a.27.27,0,0,0-.27.27v.27a.27.27,0,0,0,.27.27h6.64a.27.27,0,0,0,.27-.27v-.27A.27.27,0,0,0,26.12,24.53Zm2-9H17.53A.53.53,0,0,0,17,16v2.8H14.77V13.29a6.67,6.67,0,1,0-1,0v5.53H11.69V16a.53.53,0,0,0-.53-.53H.53A.53.53,0,0,0,0,16V22.4a.53.53,0,0,0,.53.53H11.16a.53.53,0,0,0,.53-.53V19.82H17V22.4a.53.53,0,0,0,.53.53H28.16a.53.53,0,0,0,.53-.53V16A.53.53,0,0,0,28.16,15.49Zm-17,6.38a.53.53,0,0,1-.53.53H1.06a.53.53,0,0,1-.53-.53V16.55A.53.53,0,0,1,1.06,16h9.57a.53.53,0,0,1,.53.53ZM10.23,10.7a5.71,5.71,0,1,1,8.08,0A5.71,5.71,0,0,1,10.23,10.7ZM28.16,21.87a.53.53,0,0,1-.53.53H18.06a.53.53,0,0,1-.53-.53V16.55a.53.53,0,0,1,.53-.53h9.57a.53.53,0,0,1,.53.53Zm-1.37-5.25h-7.9a.78.78,0,0,0-.78.78V21a.78.78,0,0,0,.78.78h7.9a.78.78,0,0,0,.78-.78V17.4A.78.78,0,0,0,26.79,16.62ZM18,2.89a5.33,5.33,0,1,0,0,7.54A5.34,5.34,0,0,0,18,2.89ZM13.58,7.95l-1,1,.16.16a.33.33,0,0,1-.15.55L11.5,10a.33.33,0,0,1-.4-.4l.29-1.08a.33.33,0,0,1,.55-.15l.16.16,1-1a.33.33,0,1,1,.46.46Zm0-2a.33.33,0,0,1-.46,0l-1-1-.16.16A.33.33,0,0,1,11.4,5l-.29-1.08a.33.33,0,0,1,.4-.4l1.08.29a.33.33,0,0,1,.15.55l-.16.16,1,1A.33.33,0,0,1,13.59,6Zm3.58,4L16.1,9.68a.33.33,0,0,1-.15-.55L16.11,9l-1-1a.33.33,0,1,1,.46-.46l1,1,.16-.16a.33.33,0,0,1,.55.15l.29,1.08A.33.33,0,0,1,17.17,10Zm.12-5a.33.33,0,0,1-.55.15L16.58,5l-1,1a.33.33,0,0,1-.46-.46l1-1L16,4.34a.33.33,0,0,1,.15-.55l1.08-.29a.33.33,0,0,1,.4.4Z"/>
    </g>
</svg>