<svg xmlns="http://www.w3.org/2000/svg" viewBox="0 0 26 26">
    <defs>
        <style>.cls-1{fill:#23c3e8;}</style>
    </defs>
    <g>
        <path class="cls-1"
              d="M3.81,3.81a13,13,0,1,0,18.38,0A13,13,0,0,0,3.81,3.81ZM20.89,20.89a11.16,11.16,0,1,1,0-15.78A11.16,11.16,0,0,1,20.89,20.89Z"/>
        <path class="cls-1"
              d="M5.64,5.64a10.41,10.41,0,1,0,14.72,0A10.42,10.42,0,0,0,5.64,5.64Zm6,9.88-2,2,.32.32a.64.64,0,0,1-.29,1.07l-2.1.56a.64.64,0,0,1-.79-.79l.56-2.1a.64.64,0,0,1,1.07-.29l.32.32,2-2a.64.64,0,0,1,.91.91Zm7.23,1.06.56,2.1a.64.64,0,0,1-.79.79l-2.1-.56a.64.64,0,0,1-.29-1.07l.32-.32-2-2a.64.64,0,1,1,.91-.91l2,2,.32-.32A.64.64,0,0,1,18.9,16.59ZM10,8.46l-.32.32,2,2a.64.64,0,1,1-.91.91l-2-2L8.47,10A.64.64,0,0,1,7.4,9.71l-.56-2.1a.64.64,0,0,1,.79-.79l2.1.56A.64.64,0,0,1,10,8.46Zm8.9,1.26a.64.64,0,0,1-1.07.29l-.32-.32-2,2a.64.64,0,0,1-.91-.91l2-2-.32-.32a.64.64,0,0,1,.29-1.07l2.1-.56a.64.64,0,0,1,.79.79Z"/>
    </g>
</svg>