<svg xmlns="http://www.w3.org/2000/svg" viewBox="0 0 28.08 22.41">
    <defs>
        <style>.cls-1{fill:#23c3e8;}</style>
    </defs>
    <g>
        <path class="cls-1"
              d="M26.68,10H1.49A1.39,1.39,0,0,0,.09,11.35L0,21a1.39,1.39,0,0,0,1.39,1.39h25.2A1.39,1.39,0,0,0,28,21l.09-9.66A1.39,1.39,0,0,0,26.68,10Zm-2,2.22a.2.2,0,0,1,.2-.2h1.2a.2.2,0,0,1,.2.2v1.2a.2.2,0,0,1-.2.2H24.9a.2.2,0,0,1-.2-.2Zm-2.4,0a.2.2,0,0,1,.2-.2h1.2a.2.2,0,0,1,.2.2v1.2a.2.2,0,0,1-.2.2H22.5a.2.2,0,0,1-.2-.2Zm-2.4,0a.2.2,0,0,1,.2-.2h1.2a.2.2,0,0,1,.2.2v1.2a.2.2,0,0,1-.2.2H20.1a.2.2,0,0,1-.2-.2Zm-2.4,0a.2.2,0,0,1,.2-.2h1.2a.2.2,0,0,1,.2.2v1.2a.2.2,0,0,1-.2.2H17.7a.2.2,0,0,1-.2-.2Zm-2.4,0a.2.2,0,0,1,.2-.2h1.2a.2.2,0,0,1,.2.2v1.2a.2.2,0,0,1-.2.2H15.3a.2.2,0,0,1-.2-.2Zm-2.4,0a.2.2,0,0,1,.2-.2h1.2a.2.2,0,0,1,.2.2v1.2a.2.2,0,0,1-.2.2H12.9a.2.2,0,0,1-.2-.2Zm-11,0a.2.2,0,0,1,.2-.2H3.1a.2.2,0,0,1,.2.2v1.2a.2.2,0,0,1-.2.2H1.9a.2.2,0,0,1-.2-.2Zm26.16,7a1.39,1.39,0,0,1-1.39,1.39H1.52A1.39,1.39,0,0,1,.12,19.2V17.66a1.39,1.39,0,0,0,1.39,1.39H26.47a1.39,1.39,0,0,0,1.39-1.39Zm0-3.48a1.39,1.39,0,0,1-1.39,1.39H1.48A1.36,1.36,0,0,1,.14,15.71V14.17a1.39,1.39,0,0,0,1.39,1.39H26.5a1.39,1.39,0,0,0,1.39-1.39ZM1.61,8.46H26.47A1.7,1.7,0,0,1,28,9.55a.34.34,0,0,0,0-.27L22,.21A.89.89,0,0,0,21.31,0H6.77A.89.89,0,0,0,6.1.21l-6,9.07a.34.34,0,0,0,0,.27A1.7,1.7,0,0,1,1.61,8.46ZM14,2.85l4,3.48H10Z"/>
    </g>
</svg>