<svg xmlns="http://www.w3.org/2000/svg" viewBox="0 0 29.6 25">
    <defs>
        <style>.cls-1{fill:#23c3e8;}</style>
    </defs>
    <g>
        <path class="cls-1"
              d="M23.2,23H18.92V20.42H10.81V23H6.31a.68.68,0,0,0-.68.68v.68a.68.68,0,0,0,.68.68H23.2a.68.68,0,0,0,.68-.68v-.68A.68.68,0,0,0,23.2,23ZM28.38,0h-27A1.35,1.35,0,0,0,0,1.35V17.57a1.35,1.35,0,0,0,1.35,1.35h27a1.35,1.35,0,0,0,1.35-1.35V1.35A1.35,1.35,0,0,0,28.38,0Zm0,16.22A1.35,1.35,0,0,1,27,17.57H2.7a1.35,1.35,0,0,1-1.35-1.35V2.7A1.35,1.35,0,0,1,2.7,1.35H27A1.35,1.35,0,0,1,28.38,2.7ZM24.9,2.86H4.81a2,2,0,0,0-2,2v9.22a2,2,0,0,0,2,2H24.9a2,2,0,0,0,2-2V4.85A2,2,0,0,0,24.9,2.86Z"/>
    </g>
</svg>