<svg xmlns="http://www.w3.org/2000/svg" viewBox="0 0 28.08 23.41">
    <defs>
        <style>.cls-1{fill:#23c3e8;}</style>
    </defs>
    <g>
        <path class="cls-1"
              d="M1.56,9.46H26.42a1.7,1.7,0,0,1,1.52,1.09.34.34,0,0,0,0-.27L21.93.21A.89.89,0,0,0,21.26,0H6.72a.89.89,0,0,0-.67.21l-6,10.07a.34.34,0,0,0,0,.27A1.7,1.7,0,0,1,1.56,9.46ZM26.68,11H1.49A1.39,1.39,0,0,0,.09,12.35L0,22a1.39,1.39,0,0,0,1.39,1.39h25.2A1.39,1.39,0,0,0,28,22l.09-9.66A1.39,1.39,0,0,0,26.68,11Zm-2.5,4.28a1.5,1.5,0,1,1,1.5-1.5A1.5,1.5,0,0,1,24.18,15.24Z"/>
    </g>
</svg>