<svg xmlns="http://www.w3.org/2000/svg" viewBox="0 0 30 25.94">
    <defs>
        <style>.cls-1{fill:#23c3e8;}</style>
    </defs>
    <g>
        <path class="cls-1"
              d="M30,11.57h0a1.35,1.35,0,0,1-.59.8L16.75,21a2.47,2.47,0,0,1-.59.29A3.15,3.15,0,0,1,13.5,21l-.35-.24L.64,12.39A1.38,1.38,0,0,1,0,11.57H0v4H0a1.21,1.21,0,0,0,.61,1.26l12.51,8.42.35.24a3.15,3.15,0,0,0,2.65.28,2.47,2.47,0,0,0,.59-.29l12.63-8.67A1.19,1.19,0,0,0,30,15.57h0Z"/>
        <path class="cls-1"
              d="M.64,10.89l12.51,8.42.35.24a3.15,3.15,0,0,0,2.65.28,2.47,2.47,0,0,0,.59-.29l12.63-8.67a1.18,1.18,0,0,0-.07-2.11L16.59.43a3.1,3.1,0,0,0-3.13,0L.69,8.75A1.19,1.19,0,0,0,.64,10.89Z"/>
    </g>
</svg>